<svg width="44" height="44" viewBox="0 0 44 44" fill="none" xmlns="http://www.w3.org/2000/svg">
<path fill-rule="evenodd" clip-rule="evenodd" d="M23.107 11.0128C20.0552 11.0128 18.5836 11.6141 16.5343 13.1044L11.0127 10.1237C14.0695 6.96765 18.3611 5 23.107 5C32.4051 5 39.9428 12.5376 39.9428 21.8358C39.9428 31.1339 32.4051 38.6716 23.107 38.6716C18.3611 38.6716 14.0695 36.7039 11.0127 33.5479L16.5343 30.5672C19.1849 32.0575 20.0552 32.6588 23.107 32.6588C29.0844 32.6588 33.93 27.8132 33.93 21.8358C33.93 15.8584 29.0844 11.0128 23.107 11.0128Z" fill="#FF6D6D"/>
<path d="M21.8357 22.4371L4.9999 36.2665L4.9999 8.60767L21.8357 22.4371Z" fill="#FF6D6D"/>
</svg>
